<svg width="118" height="118" viewBox="0 0 118 118" fill="none" xmlns="http://www.w3.org/2000/svg">
<path d="M59 0C26.4188 0 0 26.4188 0 59C0 91.5812 26.4188 118 59 118C91.5812 118 118 91.5812 118 59C118 26.4188 91.5888 0 59 0ZM86.7001 80.3089C81.9639 84.7248 75.4202 86.784 68.9681 87.2874C61.0668 87.8975 52.8987 86.2883 46.1795 82.086C39.4604 77.8837 34.3124 70.9968 32.8786 63.2023C31.3304 54.7977 34.0989 46.088 38.4995 38.7512C40.5968 35.2505 43.1518 31.8871 46.6371 29.7669C52.3038 26.312 64.7505 26.5332 71.0196 27.9518C75.405 28.9433 80.4081 32.4973 79.1039 36.7987C78.3336 39.3384 75.588 40.7722 72.9644 41.1993C70.3409 41.6264 67.641 41.329 65.0251 41.8247C57.6196 43.2204 52.4944 52.0826 55.3392 59.061C58.1839 66.0394 68.5181 68.6478 74.1008 63.5836C76.7778 61.1507 78.4404 57.345 81.88 56.2086C86.0823 54.8129 90.5211 58.4814 91.932 62.6837C93.9912 68.8232 91.4439 75.8931 86.7077 80.3089H86.7001Z" fill="#111827"/>
</svg>
